<?xml version="1.0" encoding="utf-8"?>
<!-- Generator: Adobe Illustrator 22.1.0, SVG Export Plug-In . SVG Version: 6.00 Build 0)  -->
<svg version="1.1" baseProfile="basic" id="Layer_1"
	 xmlns="http://www.w3.org/2000/svg" xmlns:xlink="http://www.w3.org/1999/xlink" x="0px" y="0px" viewBox="0 0 163 47"
	 xml:space="preserve">
<path fill-rule="evenodd" clip-rule="evenodd" fill="none" d="M-82.1,650"/>
<path fill-rule="evenodd" clip-rule="evenodd" fill="none" d="M-42.2,649.5"/>
<path fill-rule="evenodd" clip-rule="evenodd" fill="none" d="M-2.3,650"/>
<path fill-rule="evenodd" clip-rule="evenodd" fill="none" d="M37.6,650.5"/>
<path fill-rule="evenodd" clip-rule="evenodd" fill="none" d="M77.4,651"/>
<path fill-rule="evenodd" clip-rule="evenodd" fill="none" d="M117.3,650.5"/>
<path fill-rule="evenodd" clip-rule="evenodd" fill="none" d="M157.2,651"/>
<path fill-rule="evenodd" clip-rule="evenodd" fill="none" d="M197.1,650.5"/>
<path fill="#00A556" d="M39.2,43c0,0-2-3.8-3.9-7.9c-2.7-5.9-4-9.7-4-11.8c0-3.7,2.2-7.1,5.6-8.6c0.3-0.1,0.6-0.3,0.9-0.4
	c0.3-0.1,0.6-0.2,0.9-0.2c0.6-0.1,1.3-0.2,1.9-0.2c5.2,0,9.4,4.2,9.4,9.4c0,0.9-0.3,2.2-0.8,3.9c-0.2,0.5-0.4,1.1-0.6,1.8
	c-0.5,1.2-1.1,2.7-1.7,4.2c-0.1,0.3-0.3,0.6-0.4,0.9c-0.1,0.3-0.5,1-0.5,1c-1.8,3.8-3.6,7.3-3.9,7.9l-1.5,2.8L39.2,43z M40.6,19.7
	c-1.9,0-3.5,1.6-3.5,3.5s1.6,3.5,3.5,3.5c1.9,0,3.5-1.6,3.5-3.5S42.5,19.7,40.6,19.7z"/>
<path fill="#0C677F" d="M57.4,8.7L57.4,8.7l-0.1-0.2l-0.1,0.1h-0.1V8.6h-0.1V8.5H57l-0.1-0.1V8.3l-0.2-0.2V8l-0.1-0.1h-0.1V7.8h-1.3
	l-0.1-0.1V7.7h-0.1l0.1-0.2V7.4l0.1-0.2c-0.2-2.2-1.2-4.3-2.8-5.9h-1.3l-0.2,0.2v0.1H51l-0.1,0.1v0.1h-0.1V2h-0.1V2l-0.2,0.2
	c-0.2,0-0.4,0-0.6,0L50,2.1h-0.2v0.1h-0.2v0.1h-0.3l-0.1,0.1H49v0.1l-0.1-0.1h-0.1l0.1,0.1v0.1l-0.2,0.2h0.1l-0.1,0.1h-0.1
	c0,0,0,0.1,0,0.1h-0.1l-0.3,0.3v0.1l-0.1-0.1l-0.1,0.1v0.1H48V3.3h-0.1v0.2h-0.1V3.4l-0.2,0.2v0.1l-0.1,0.1h-0.1v0.1h0.1V4l-0.1,0.1
	h-0.2v0.3l-0.1,0.1h-0.1V4.4h-0.6l-0.1-0.1h-0.1v0.1h-0.1V4.3l-0.1-0.1h-0.4l-0.1,0.1l-0.4-0.1L45,3.9h-0.1C43.4,3,41.7,2.7,40,3
	l-0.2-0.1h-0.4l-0.2-0.1c-0.9,0.2-1.8,0.4-2.8,0.5c-0.3,0.1-0.7,0.3-1,0.5h-0.1l-0.3,0.2l-0.1,0.3h-0.2l-1.1,1.3l-1-0.1l-0.1-0.1
	h-0.2l-0.2,0.1c-1.1-0.1-2.1-0.3-3.1-0.6c-0.1-0.1-0.2-0.2-0.3-0.4l-0.4-0.3h-0.4l-0.1,0.1h-0.1c-0.4-0.5-0.9-0.9-1.4-1.2
	c-0.5-0.1-1-0.2-1.4-0.3l-2.1,1.3l-0.7-0.2c-0.1,0.3-0.4,0.5-0.6,0.6h-0.7l-0.6-0.5c-0.5-1.1-1.3-2.1-2.4-2.7h-0.3l-0.4,0.2
	l-0.2-0.2c-0.7-0.1-1.4-0.4-2-0.7h-0.1l-0.1-0.1l-0.5-0.2V0.4l-0.9,0.3L13.7,1l-0.3,0.2c-0.6,0-1.1,0-1.7,0.1L11.5,1l-2,0.4l-1,1
	L8,2.5C8.2,3.8,7.9,4.9,7.1,6L5.8,7c0,0.9,0,1.7,0,2.6l0.1,0.1L5.6,9.9v0.4l0.2,0.1l0.1,0.3c-0.2,0.1-0.4,0.3-0.5,0.4
	c0,0.2-0.1,0.3-0.2,0.4H5.1v0.2l-0.2,0.4L6,13.7h0.1l0.1,0.1c0,0.3,0,0.7,0.2,1L6.2,15l-0.1,0.1l0.1,0.1v0.1h0.1v0.1l0.1,0.1v0.2
	h0.2l0.1,0.1v0.5l-0.1,0.1v0.2l-0.1,0.1c0,0.2,0,0.3-0.1,0.4H6.2L6,16.9H5.9l-0.2,0.2v0.2H5.6v0.1l-0.2,0.4L5.7,18l0.2,0.1v0.3
	l-0.1,0.2H5.7l-0.1,0.1c0,0.1,0,0.3,0,0.4l-0.1,0.2l-0.2,0.1v0.2l-0.2,0.2H5.1l-0.2-0.1l-0.5,0.3H4.3c0,0.2,0,0.4,0.1,0.6l-0.2,0.2
	H4.1v-0.1L4,20.7H3.9V21c-0.3,0.2-0.4,0.4-0.5,0.6v0.2l0.1,0.1v0.5c0,0.1-0.1,0.2-0.2,0.3v0.2c-0.1,0.1-0.1,0.3-0.2,0.4l-0.4,0.2
	l-0.1-0.1H2.2l-0.1,0.1H2l-0.2-0.1l-0.1,0.1v0.6H1.6v0.1h0.1v0.1l-0.1,0.1v0.3l-0.1,0.1H1.4l0.1,0.2v1L1.6,26l-0.1,0.1l0.1,0.1H1.5
	v0.2l-0.1,0.1v0.2l-0.1,0.2V27l0.1,0.2v0.1l0.1,0.1v0.4H1.4c0,0.3-0.1,0.7-0.1,1l-0.1,0.2c0,0.1,0,0.2,0.1,0.4h0.1l0.1,0.1
	c-0.1,0.4-0.1,0.8,0,1.2h0.1v0.2l0.2,0.1c0,0.1,0,0.2,0,0.4H1.5c0,0.4,0.1,0.9,0.2,1.3l-0.2,0.2c0,0.1,0.1,0.2,0.2,0.3h0.1l-0.2,0.2
	H1.5l-0.1,0.1v0.3l0.1,0.1v0.7h0.2v0.3h0.1v0.1l-0.2,0.1c-0.1,0.2-0.1,0.3-0.1,0.5l-0.1,0.2v0.2l-0.1,0.1l0,0.5l0.2,0v-0.1
	c0.3,0,0.7,0,1-0.1l0.2,0.1C3.2,36,3.9,35.9,4.5,36l0.1-0.1l-0.1-0.1l0.1,0l0.1,0.1c1.4-0.1,2.8,0,4.2,0.2L9,36.2
	c0.2,0,0.5,0.1,0.7,0.2c0.1,0.2,0.3,0.3,0.5,0.4h0.1v0.1h0.1V37c0.2,0.1,0.3,0.2,0.4,0.4H11c0.5,0.5,1,1.1,1.4,1.7v0v-0.2
	c0.1,0,0.1-0.1,0.2-0.1v0.1h-0.1v0.1L12.4,39l0.1,0.1v0.1c0.1,0.2,0.2,0.5,0.4,0.6l0.1-0.1v0.1L12.9,40l0.1,0.1h-0.1l0.1,0.1v0.1
	l0.3,0.3h0.1c0.1,0.1,0.2,0.1,0.3,0.2h0.4l0.1,0.1h0.1v-0.1L14,40.6l0.3,0.1l0.1-0.1v-0.2l0.1-0.2v-0.1h0.1v0.1l-0.1,0.2v0.2h0.1
	v0.1h0.1v0.2h-0.2L14.3,41h-0.1l0.1,0.1h-0.1c0,0,0-0.1,0-0.1c0,0,0-0.1,0-0.1h-0.6c0.1,0.3,0.1,0.6,0.2,0.9l0.2,0.2l0.1-0.1h0.3
	l-0.1-0.1h0.1v0.1h0.1l0.1,0.1h-0.2v-0.1L14.2,42l0.1,0.1v0.1l-0.1-0.1V42c-0.1,0-0.2,0-0.3,0c0,0-0.1,0-0.1,0v0.1
	c0.1,0.2,0.2,0.3,0.3,0.4v0.2l0.1,0.1V43l0.1,0.1v0.1l0.3,0.3v0.1l-0.3-0.3c0.1,0.2,0.2,0.5,0.4,0.6v0.1c0.1,0.3,0.3,0.6,0.5,0.8
	h0.1v-0.1l0.1,0.1h-0.1v0.1h0.3l-0.1,0.1h-0.1l0.3,0.3v-0.1h0.1v0.1l0.2,0.2h0.1v0.1l0.5,0.3v-0.3h0.1v0.4h0.1l0.1,0.1H17l0.1-0.1
	L17,45.6v-0.1H17v0.1h0.1L17,45.5h0.1v-0.1h0.1l-0.1,0.1v0.1l0.1,0.1h-0.1c0,0.1,0,0.1,0,0.2c0,0.1,0,0.1,0,0.2h0.6v-0.3l0.1-0.1
	v-0.3l-0.1-0.1h0.1l0.1,0.1v-0.2c0,0,0.1,0.1,0.1,0.1v0.2l0.2-0.2v0.1l-0.1,0.1v0.1H18v0.1h-0.1l-0.1,0.2v0.1h0.8l0.1-0.1
	c-0.1-0.1-0.1-0.1-0.2-0.2h0.1v0.1h0.1l0.2,0.1h0.5l0.1-0.1l0.1,0.1v-0.1l0.1,0.1v-0.1h0.4v-0.1h0.8v-0.1h-0.1l-0.1-0.2v-0.1
	l-0.1-0.1V45h-0.1c0-0.1,0-0.2,0-0.4c0,0,0-0.1,0-0.1h0.1v-0.2l-0.2-0.2h0.1l0.2,0.2v0.1l-0.2,0.2l0.1,0.2v0.1l0.1,0.2v0.1h0.1
	l-0.1,0.1l0.1,0.2h0.3l0.2,0.1h0.3l0.1-0.1l-0.2-0.1v-0.3l-0.1-0.2h0.1c-0.1-0.1-0.1-0.3-0.1-0.4c0,0-0.1,0-0.1,0c0,0-0.1,0-0.1,0
	v0.1h-0.1v-0.1h0.1l-0.1-0.1v-0.2c0.1,0.1,0.1,0.2,0.2,0.3l0.1-0.1h0.1l-0.1-0.2h0.1v0.2v0l0.1,0.1h0.1l0.1,0.1h-0.2l-0.1-0.1v0.2
	l0.1,0.2v0.3h0.1v0.2h0.2l0.1-0.1H22v-0.1h0.3V45l0.1-0.1v-0.1l-0.2-0.2h0.2v-0.2l-0.3-0.3H22l-0.1-0.1V44c0.1,0.1,0.2,0.2,0.4,0.3
	v-0.1l0.1,0.1v0.1l0.1,0.1v0.1l0.1,0.1h0.1v0.1l-0.1,0.1v0.1l-0.2,0.2v0.1h-0.1c0,0.1-0.1,0.2-0.2,0.3h0.1v0.1h0.3
	c0.1,0,0.2-0.1,0.3-0.2h0.3V45l0.1-0.1h0.2v-0.2l0.1,0.1v-0.2h0.1v0.3h-0.2L23.1,45H23v0.2c0.4,0.1,0.8,0.1,1.2,0v-0.3L24.1,45v-0.1
	H24V45h-0.1l0.1-0.1l-0.1-0.1c0,0,0-0.1,0-0.1c0,0,0-0.1,0-0.1l0.1-0.1v0.1l-0.1,0.1H24v0.1l0.1,0.1c0,0,0.1,0,0.1,0
	c0,0,0.1,0,0.1,0v0.2h0.1l0.1-0.1h0.1v-0.1l0.1,0.1l0.1-0.1h0.4v-0.1l0.1,0.1c0.2,0,0.5-0.1,0.7-0.2v-0.1h0.2L26,44.7h1.5l0.1-0.2
	h-0.1l0.2-0.2l-0.1,0.1v0.1h0.2v-0.2l-0.2-0.2h0.1v-0.3l-0.1-0.1l0.1-0.1c-0.1,0-0.2-0.1-0.3-0.2v-0.1h-0.1l-0.1-0.1h0.1l-0.2-0.2
	l0.1-0.1v0.1l0.2,0.1c-0.1-0.1-0.1-0.2-0.2-0.3V43l0.1,0.1h0.1v0.1l0.2,0.2v0.1h0.2l-0.1,0.1l0.1,0.1h0.1v0.1H28l0.1-0.1v-0.2
	l0.1,0.1c0,0.1-0.1,0.2-0.2,0.3l0.1,0.1h0.3v-0.1l0.1,0.1l-0.1,0.1V44h0.3l0.1-0.1l-0.1-0.1v-0.2l0.2-0.2c0.1,0,0.3,0,0.4-0.1v-0.2
	L29,43.1h0.1v-0.1h0.1V43l0.1-0.1v-0.1l0.3-0.4v-0.1l0.2-0.2V42h0.2v-0.1H30c0-0.4,0.1-0.8,0.1-1.2l0.1-0.1v-0.4l0.3-0.3v-0.3
	c-0.1-0.1-0.2-0.2-0.4-0.3v-0.2h0.1l0.1-0.1V39l0.1-0.1l-0.2-0.2v-0.1c0.1-0.1,0.2-0.1,0.3-0.2v-0.1l0.1-0.1h0.1l0.2,0.1l0.1-0.1
	v-0.2H31c0.6-0.6,1.1-1.2,1.6-1.8h0.3L33,36l0.5-0.2c-2.8-6.2-4.2-10.3-4.2-12.6c0-4.4,2.6-8.5,6.7-10.3c0.4-0.2,0.8-0.3,1.1-0.4
	c0.4-0.1,0.7-0.2,1.1-0.3c0.7-0.2,1.5-0.2,2.3-0.2c4.5,0,8.5,2.7,10.2,6.6l0.1-0.1c0.2-0.1,0.4-0.1,0.6-0.1l0.1-0.2h0.1l0.1-0.1
	c0.1-0.8,0.2-1.7,0.5-2.5c0.3-0.3,0.6-0.6,0.7-1l0.2-0.2v-0.4l0.1-0.1l0.3-0.1l0.2-0.4l0.5-0.5c0.3,0.1,0.6,0.2,0.9,0.2l0.3-0.3h0.2
	c0.2-0.2,0.4-0.4,0.6-0.5h0.3l0.4-0.4h0.2l0.2-0.1v-0.2l0.1-0.2v-0.4h-0.1l-0.1-0.1V11H57l-0.1-0.1l0.1-0.1v-0.1h0.1l0.1-0.1v-0.4
	l0.1-0.1V10h0.1V9.6l-0.1-0.1V9.3h0.1l-0.1-0.1V9.1L57.3,9V8.9L57.4,8.7L57.4,8.7z M12.9,38.9L12.9,38.9l0.1,0.2h-0.1V38.9
	L12.9,38.9L12.9,38.9L12.9,38.9l-0.2-0.2h-0.1c0.1-0.1,0.2-0.1,0.3-0.2l0.3-0.1v-0.1h0.1l0.1-0.1h0.2l-0.1,0.1h-0.1v0.1h-0.1
	l-0.1,0.1H13c-0.1,0-0.2,0.1-0.3,0.2L12.9,38.9L12.9,38.9z M13,39.7L13,39.7L13,39.7l0.2-0.1h0.3c0,0,0-0.1,0-0.1c0,0,0-0.1,0-0.1
	l0.1-0.1v-0.2h0.1l0.1,0.1h-0.1v0.1h-0.1l-0.1,0.2l0.1,0.1v0.1l0.2,0.1C13.5,39.8,13.3,39.8,13,39.7z M13.8,39.7L13.8,39.7
	c0.1,0.1,0,0.1,0,0.1V39.7C13.8,39.8,13.8,39.8,13.8,39.7L13.8,39.7z M13.7,39.9L13.7,39.9C13.8,40,13.8,40,13.7,39.9L13.7,39.9z
	 M14.6,39.7L14.6,39.7h-0.2h-0.1l-0.1-0.1h-0.2L14,39.6l-0.1,0.1H14v0.1h-0.1c0,0,0-0.1,0-0.1c0,0,0-0.1,0-0.1c0,0,0.1,0,0.1,0
	c0,0,0.1,0,0.1,0v-0.1l0.1,0.1h0.1l0.2,0.1C14.5,39.7,14.5,39.7,14.6,39.7C14.6,39.7,14.6,39.7,14.6,39.7L14.6,39.7z M17.9,45.1
	L17.9,45.1C17.9,45,17.9,45.1,17.9,45.1L17.9,45.1z M21.2,44.1L21.2,44.1l0.1-0.2L21.2,44.1L21.2,44.1z M21.3,44.2L21.3,44.2
	L21.3,44.2L21.3,44.2L21.3,44.2z"/>
<path fill="#0C677F" d="M40.6,21.1c-1.1,0-2,0.9-2,2s0.9,2,2,2c1.1,0,2-0.9,2-2S41.7,21.1,40.6,21.1z"/>
<g>
	<path fill="#0C677F" d="M74.8,22.9h-3.2l-5.4-8.1v8.1H63V9.7h3.2l5.4,8.2V9.7h3.2V22.9z"/>
	<path fill="#0C677F" d="M80.2,9.7v13.3H77V9.7H80.2z"/>
	<path fill="#0C677F" d="M92.7,10.8c1.1,0.8,1.7,1.9,2,3.3h-3.4c-0.2-0.5-0.6-0.9-1-1.1s-1-0.4-1.7-0.4c-1,0-1.8,0.3-2.4,1
		c-0.6,0.7-0.9,1.6-0.9,2.8c0,1.3,0.3,2.2,1,2.9c0.6,0.7,1.6,1,2.7,1c0.8,0,1.4-0.2,2-0.6c0.6-0.4,1-1,1.2-1.8h-4v-2.3h6.7v3.2
		c-0.3,0.8-0.7,1.5-1.2,2.2c-0.5,0.7-1.3,1.2-2.1,1.6c-0.9,0.4-1.8,0.6-2.9,0.6c-1.3,0-2.5-0.3-3.5-0.9c-1-0.6-1.8-1.4-2.3-2.4
		c-0.5-1-0.8-2.2-0.8-3.5s0.3-2.5,0.8-3.5c0.5-1,1.3-1.8,2.3-2.4c1-0.6,2.2-0.9,3.5-0.9C90.3,9.6,91.7,10,92.7,10.8z"/>
	<path fill="#0C677F" d="M99.9,12.2V15h4.5v2.4h-4.5v2.9h5v2.6h-8.2V9.7h8.2v2.5H99.9z"/>
	<path fill="#0C677F" d="M113.6,22.9l-2.9-5H110v5h-3.2V9.7h5.5c1,0,1.9,0.2,2.7,0.5c0.7,0.4,1.3,0.9,1.6,1.5s0.5,1.4,0.5,2.2
		c0,1-0.3,1.8-0.8,2.5c-0.5,0.7-1.3,1.1-2.3,1.4l3.1,5.2H113.6z M110,15.7h2c0.6,0,1.1-0.1,1.4-0.4c0.3-0.3,0.4-0.7,0.4-1.2
		c0-0.5-0.2-0.9-0.5-1.2c-0.3-0.3-0.8-0.4-1.4-0.4h-2V15.7z"/>
	<path fill="#0C677F" d="M121.9,9.7v13.3h-3.2V9.7H121.9z"/>
	<path fill="#0C677F" d="M132.3,20.5h-5l-0.8,2.4h-3.4L128,9.8h3.7l4.9,13.2h-3.4L132.3,20.5z M131.5,18.1l-1.6-4.9l-1.7,4.9H131.5z
		"/>
</g>
<g>
	<path fill="#00A556" d="M63.4,27.1l3.4,9.3l3.4-9.3h1.2l-3.9,10.6h-1.3l-3.9-10.6H63.4z"/>
	<path fill="#00A556" d="M80.3,27.7c0.8,0.5,1.4,1.1,1.8,1.9c0.4,0.8,0.7,1.8,0.7,2.8s-0.2,2-0.7,2.8c-0.4,0.8-1.1,1.5-1.8,1.9
		s-1.7,0.7-2.6,0.7c-1,0-1.9-0.2-2.6-0.7s-1.4-1.1-1.8-1.9c-0.4-0.8-0.7-1.8-0.7-2.8s0.2-2,0.7-2.8c0.4-0.8,1.1-1.5,1.8-1.9
		s1.7-0.7,2.6-0.7C78.7,27,79.6,27.2,80.3,27.7z M75.6,28.5c-0.6,0.4-1.1,0.9-1.5,1.5c-0.4,0.7-0.5,1.4-0.5,2.3s0.2,1.7,0.5,2.3
		c0.4,0.7,0.8,1.2,1.5,1.5c0.6,0.4,1.3,0.5,2.1,0.5c0.8,0,1.5-0.2,2.1-0.5c0.6-0.4,1.1-0.9,1.5-1.5c0.4-0.7,0.5-1.4,0.5-2.3
		s-0.2-1.7-0.5-2.3c-0.4-0.7-0.8-1.2-1.5-1.5c-0.6-0.4-1.3-0.5-2.1-0.5C76.9,28,76.2,28.2,75.6,28.5z"/>
	<path fill="#00A556" d="M91,27.1V28h-3v9.7h-1.1V28h-3v-0.9H91z"/>
	<path fill="#00A556" d="M93.4,28v4h4.1v0.8h-4.1v4H98v0.9h-5.6V27.1H98V28H93.4z"/>
	<path fill="#00A556" d="M105.9,36.4c-0.2,0.4-0.6,0.8-1,1c-0.5,0.3-1.1,0.4-1.8,0.4c-0.7,0-1.3-0.1-1.8-0.4s-1-0.6-1.3-1
		c-0.3-0.4-0.5-0.9-0.5-1.5h1.1c0,0.3,0.2,0.6,0.3,0.9c0.2,0.3,0.5,0.6,0.8,0.8c0.4,0.2,0.8,0.3,1.3,0.3c0.7,0,1.2-0.2,1.5-0.5
		c0.4-0.4,0.5-0.8,0.5-1.4c0-0.5-0.1-0.9-0.4-1.1c-0.2-0.3-0.5-0.5-0.9-0.7c-0.3-0.2-0.8-0.3-1.4-0.5c-0.7-0.2-1.2-0.4-1.6-0.6
		c-0.4-0.2-0.7-0.5-1-0.9c-0.3-0.4-0.4-0.9-0.4-1.5c0-0.8,0.3-1.4,0.8-1.9c0.6-0.5,1.3-0.8,2.3-0.8c1,0,1.8,0.2,2.4,0.7
		c0.6,0.5,0.9,1.1,1,1.8h-1.1c-0.1-0.5-0.3-0.9-0.7-1.2c-0.4-0.3-0.9-0.5-1.6-0.5c-0.6,0-1.1,0.2-1.5,0.5c-0.4,0.3-0.6,0.8-0.6,1.3
		c0,0.5,0.1,0.8,0.3,1.1c0.2,0.3,0.5,0.5,0.8,0.6c0.3,0.1,0.8,0.3,1.4,0.5c0.7,0.2,1.2,0.4,1.6,0.6s0.8,0.5,1.1,0.9s0.4,0.9,0.4,1.6
		C106.3,35.5,106.2,36,105.9,36.4z"/>
	<path fill="#00A556" d="M119.9,28c0.8,0.6,1.4,1.5,1.8,2.5h-1.1c-0.3-0.8-0.7-1.4-1.4-1.8c-0.7-0.5-1.5-0.7-2.4-0.7
		c-0.7,0-1.4,0.2-2,0.5c-0.6,0.4-1.1,0.9-1.4,1.5c-0.3,0.7-0.5,1.5-0.5,2.3s0.2,1.7,0.5,2.3s0.8,1.2,1.4,1.5c0.6,0.4,1.3,0.5,2,0.5
		c1,0,1.8-0.2,2.4-0.7c0.6-0.5,1.1-1.1,1.4-1.8h1.1c-0.3,1.1-0.9,1.9-1.8,2.5c-0.8,0.6-1.9,0.9-3.2,0.9c-1,0-1.8-0.2-2.6-0.7
		c-0.8-0.5-1.4-1.1-1.8-1.9c-0.4-0.8-0.6-1.7-0.6-2.8c0-1.1,0.2-2,0.6-2.8s1-1.5,1.8-1.9c0.8-0.5,1.6-0.7,2.6-0.7
		C118,27,119.1,27.3,119.9,28z"/>
	<path fill="#00A556" d="M131,27.7c0.8,0.5,1.4,1.1,1.8,1.9c0.4,0.8,0.7,1.8,0.7,2.8s-0.2,2-0.7,2.8c-0.4,0.8-1.1,1.5-1.8,1.9
		s-1.7,0.7-2.6,0.7c-1,0-1.9-0.2-2.6-0.7s-1.4-1.1-1.8-1.9c-0.4-0.8-0.7-1.8-0.7-2.8s0.2-2,0.7-2.8c0.4-0.8,1.1-1.5,1.8-1.9
		s1.7-0.7,2.6-0.7C129.4,27,130.2,27.2,131,27.7z M126.3,28.5c-0.6,0.4-1.1,0.9-1.5,1.5c-0.4,0.7-0.5,1.4-0.5,2.3s0.2,1.7,0.5,2.3
		c0.4,0.7,0.8,1.2,1.5,1.5c0.6,0.4,1.3,0.5,2.1,0.5c0.8,0,1.5-0.2,2.1-0.5c0.6-0.4,1.1-0.9,1.5-1.5c0.4-0.7,0.5-1.4,0.5-2.3
		s-0.2-1.7-0.5-2.3c-0.4-0.7-0.8-1.2-1.5-1.5c-0.6-0.4-1.3-0.5-2.1-0.5C127.6,28,126.9,28.2,126.3,28.5z"/>
	<path fill="#00A556" d="M136.4,27.1v6.4c0,1.1,0.2,2,0.7,2.5c0.5,0.5,1.2,0.8,2,0.8c0.9,0,1.5-0.3,2-0.8c0.5-0.5,0.7-1.4,0.7-2.5
		v-6.4h1v6.4c0,1.4-0.3,2.5-1,3.2s-1.6,1.1-2.8,1.1s-2.1-0.4-2.8-1.1c-0.7-0.7-1-1.8-1-3.2v-6.4H136.4z"/>
	<path fill="#00A556" d="M153.1,37.7h-1.1l-5.8-8.8v8.8h-1.1V27.2h1.1l5.8,8.9v-8.9h1.1V37.7z"/>
	<path fill="#00A556" d="M161.6,27.1V28h-3v9.7h-1.1V28h-3v-0.9H161.6z"/>
</g>
</svg>
